<svg width="278" height="278" viewBox="0 0 278 278" fill="none" xmlns="http://www.w3.org/2000/svg">
<circle cx="139" cy="139" r="139" fill="url(#paint0_linear_2_4)"/>
<path d="M116.25 100.4C124.8 123.05 136.65 156.95 143.1 181.25C144 184.7 142.5 188.45 139.05 190.55C134.25 193.85 128.1 194.45 126.45 191.15C124.8 187.85 120.3 179.75 116.55 168.2L82.05 168.5C78.45 179.3 74.7 186.95 71.4 194C69.9 197 64.35 196.55 59.1 194C56.1 192.5 52.8 189.95 53.85 186.2C60.9 162.65 78.9 114.65 89.85 91.85C91.2 88.85 94.95 84.35 102 87.2C106.35 89.15 113.7 93.8 116.25 100.4ZM100.2 118.4L89.7 147.5L110.55 147.65L100.2 118.4ZM180.104 90.65C201.104 88.55 217.454 99.8 217.004 107.15C216.854 110.6 211.154 117.35 207.704 116.9C206.054 116.75 204.704 116 203.354 115.1C198.854 112.4 194.204 109.4 185.804 109.7C179.954 109.85 175.904 114.05 176.804 120.5C177.254 124.1 181.454 127.7 195.554 133.4C212.504 140.3 221.354 149.15 221.354 161.15C221.354 172.7 217.604 195.35 185.504 193.7C176.804 193.25 151.304 191.75 151.304 177.8C151.304 172.85 152.504 168.05 159.254 169.1C163.304 169.7 179.954 174.8 188.654 174.65C197.504 174.35 200.804 169.85 199.004 162.2C198.554 159.65 192.404 156.05 179.504 151.1C166.004 145.85 151.604 137.15 151.604 120.95C151.604 101.6 167.054 92 180.104 90.65Z" fill="#110079"/>
<defs>
<linearGradient id="paint0_linear_2_4" x1="30" y1="37" x2="229" y2="233" gradientUnits="userSpaceOnUse">
<stop stop-color="#2D2AC4"/>
<stop offset="1" stop-color="#5EF900" stop-opacity="0.69"/>
</linearGradient>
</defs>
</svg>
